<svg data-v-fde0c5aa="" xmlns="http://www.w3.org/2000/svg" viewBox="0 0 300 300" class="iconLeft"><!----><defs data-v-fde0c5aa=""><!----></defs><rect data-v-fde0c5aa="" fill="transparent" x="0" y="0" width="300px" height="300px" class="logo-background-square"></rect><defs data-v-fde0c5aa=""><!----></defs><g data-v-fde0c5aa="" id="c217d6e3-740e-4b11-9170-5b36e0f68f36" fill="#000000" transform="matrix(1.36298668384552,0,0,1.36298668384552,79.49967272842198,137.85578809341678)"><path d="M3.78 3.25L3.78 3.25Q5.82 3.25 6.92 4.03Q8.02 4.80 8.02 6.34L8.02 6.34Q8.02 7.18 7.72 7.78Q7.42 8.37 6.85 8.74Q6.29 9.11 5.47 9.28Q4.66 9.45 3.64 9.45L3.64 9.45L2.56 9.45L2.56 13.05L1.20 13.05L1.20 3.49Q1.78 3.35 2.48 3.30Q3.19 3.25 3.78 3.25ZM3.89 4.44L3.89 4.44Q3.02 4.44 2.56 4.48L2.56 4.48L2.56 8.29L3.58 8.29Q4.28 8.29 4.84 8.20Q5.40 8.11 5.79 7.89Q6.17 7.67 6.38 7.29Q6.59 6.92 6.59 6.33L6.59 6.33Q6.59 5.77 6.38 5.40Q6.16 5.04 5.79 4.82Q5.42 4.61 4.93 4.52Q4.44 4.44 3.89 4.44ZM15.76 9.41L15.76 9.41Q15.76 10.28 15.51 10.98Q15.26 11.68 14.80 12.18Q14.35 12.68 13.72 12.96Q13.09 13.23 12.35 13.23L12.35 13.23Q11.61 13.23 10.98 12.96Q10.35 12.68 9.89 12.18Q9.44 11.68 9.18 10.98Q8.93 10.28 8.93 9.41L8.93 9.41Q8.93 8.55 9.18 7.85Q9.44 7.14 9.89 6.64Q10.35 6.13 10.98 5.86Q11.61 5.59 12.35 5.59L12.35 5.59Q13.09 5.59 13.72 5.86Q14.35 6.13 14.80 6.64Q15.26 7.14 15.51 7.85Q15.76 8.55 15.76 9.41ZM14.41 9.41L14.41 9.41Q14.41 8.18 13.85 7.46Q13.30 6.73 12.35 6.73L12.35 6.73Q11.40 6.73 10.84 7.46Q10.29 8.18 10.29 9.41L10.29 9.41Q10.29 10.64 10.84 11.36Q11.40 12.08 12.35 12.08L12.35 12.08Q13.30 12.08 13.85 11.36Q14.41 10.64 14.41 9.41ZM18.82 3.51L18.82 5.77L21.57 5.77L21.57 6.86L18.82 6.86L18.82 10.22Q18.82 10.77 18.90 11.12Q18.98 11.48 19.15 11.68Q19.32 11.89 19.57 11.97Q19.82 12.05 20.16 12.05L20.16 12.05Q20.75 12.05 21.11 11.92Q21.46 11.79 21.60 11.73L21.60 11.73L21.85 12.81Q21.66 12.91 21.17 13.05Q20.68 13.20 20.05 13.20L20.05 13.20Q19.31 13.20 18.82 13.01Q18.34 12.82 18.05 12.45Q17.75 12.07 17.63 11.52Q17.51 10.96 17.51 10.23L17.51 10.23L17.51 3.74L18.82 3.51ZM25.69 12.11L25.69 12.11Q26.15 12.11 26.51 12.09Q26.87 12.07 27.10 12.01L27.10 12.01L27.10 9.84Q26.96 9.77 26.65 9.72Q26.33 9.67 25.89 9.67L25.89 9.67Q25.59 9.67 25.26 9.72Q24.93 9.76 24.66 9.89Q24.39 10.02 24.21 10.25Q24.02 10.49 24.02 10.86L24.02 10.86Q24.02 11.56 24.47 11.84Q24.92 12.11 25.69 12.11ZM25.58 5.59L25.58 5.59Q26.36 5.59 26.90 5.79Q27.44 5.99 27.77 6.36Q28.10 6.73 28.24 7.25Q28.38 7.76 28.38 8.37L28.38 8.37L28.38 12.92Q28.21 12.95 27.91 13.00Q27.61 13.05 27.23 13.09Q26.85 13.13 26.41 13.17Q25.97 13.20 25.54 13.20L25.54 13.20Q24.92 13.20 24.40 13.08Q23.88 12.95 23.51 12.68Q23.13 12.40 22.92 11.96Q22.71 11.51 22.71 10.88L22.71 10.88Q22.71 10.28 22.95 9.84Q23.20 9.41 23.62 9.14Q24.04 8.88 24.60 8.75Q25.16 8.62 25.77 8.62L25.77 8.62Q25.97 8.62 26.18 8.64Q26.39 8.67 26.58 8.70Q26.77 8.74 26.91 8.76Q27.05 8.79 27.10 8.81L27.10 8.81L27.10 8.44Q27.10 8.12 27.03 7.80Q26.96 7.49 26.78 7.25Q26.60 7 26.29 6.85Q25.97 6.71 25.47 6.71L25.47 6.71Q24.82 6.71 24.34 6.80Q23.86 6.89 23.62 6.99L23.62 6.99L23.46 5.91Q23.72 5.80 24.30 5.69Q24.89 5.59 25.58 5.59ZM31.75 3.51L31.75 5.77L34.51 5.77L34.51 6.86L31.75 6.86L31.75 10.22Q31.75 10.77 31.84 11.12Q31.92 11.48 32.09 11.68Q32.26 11.89 32.51 11.97Q32.76 12.05 33.10 12.05L33.10 12.05Q33.68 12.05 34.04 11.92Q34.40 11.79 34.54 11.73L34.54 11.73L34.79 12.81Q34.59 12.91 34.10 13.05Q33.61 13.20 32.98 13.20L32.98 13.20Q32.24 13.20 31.76 13.01Q31.28 12.82 30.98 12.45Q30.69 12.07 30.57 11.52Q30.45 10.96 30.45 10.23L30.45 10.23L30.45 3.74L31.75 3.51ZM42.39 9.41L42.39 9.41Q42.39 10.28 42.14 10.98Q41.89 11.68 41.43 12.18Q40.98 12.68 40.35 12.96Q39.72 13.23 38.98 13.23L38.98 13.23Q38.23 13.23 37.60 12.96Q36.97 12.68 36.52 12.18Q36.06 11.68 35.81 10.98Q35.56 10.28 35.56 9.41L35.56 9.41Q35.56 8.55 35.81 7.85Q36.06 7.14 36.52 6.64Q36.97 6.13 37.60 5.86Q38.23 5.59 38.98 5.59L38.98 5.59Q39.72 5.59 40.35 5.86Q40.98 6.13 41.43 6.64Q41.89 7.14 42.14 7.85Q42.39 8.55 42.39 9.41ZM41.03 9.41L41.03 9.41Q41.03 8.18 40.48 7.46Q39.93 6.73 38.98 6.73L38.98 6.73Q38.02 6.73 37.47 7.46Q36.92 8.18 36.92 9.41L36.92 9.41Q36.92 10.64 37.47 11.36Q38.02 12.08 38.98 12.08L38.98 12.08Q39.93 12.08 40.48 11.36Q41.03 10.64 41.03 9.41ZM55.51 8.19L55.51 8.19Q55.51 9.45 55.12 10.38Q54.73 11.31 54.01 11.92Q53.30 12.53 52.30 12.83Q51.31 13.13 50.12 13.13L50.12 13.13Q49.53 13.13 48.83 13.08Q48.12 13.03 47.54 12.89L47.54 12.89L47.54 3.49Q48.12 3.35 48.83 3.30Q49.53 3.25 50.12 3.25L50.12 3.25Q51.31 3.25 52.30 3.55Q53.30 3.85 54.01 4.46Q54.73 5.07 55.12 6.00Q55.51 6.93 55.51 8.19ZM50.23 11.94L50.23 11.94Q52.16 11.94 53.12 10.96Q54.07 9.97 54.07 8.19L54.07 8.19Q54.07 6.41 53.12 5.42Q52.16 4.44 50.23 4.44L50.23 4.44Q49.66 4.44 49.34 4.45Q49.03 4.47 48.90 4.48L48.90 4.48L48.90 11.90Q49.03 11.91 49.34 11.93Q49.66 11.94 50.23 11.94ZM57.04 9.42L57.04 9.42Q57.04 8.46 57.32 7.74Q57.60 7.01 58.06 6.54Q58.52 6.06 59.12 5.82Q59.72 5.59 60.35 5.59L60.35 5.59Q61.82 5.59 62.61 6.50Q63.39 7.42 63.39 9.30L63.39 9.30Q63.39 9.38 63.39 9.51Q63.39 9.65 63.38 9.76L63.38 9.76L58.39 9.76Q58.48 10.89 59.05 11.48Q59.63 12.07 60.84 12.07L60.84 12.07Q61.53 12.07 62.00 11.95Q62.47 11.83 62.71 11.72L62.71 11.72L62.89 12.81Q62.65 12.94 62.06 13.08Q61.46 13.22 60.70 13.22L60.70 13.22Q59.75 13.22 59.06 12.93Q58.37 12.64 57.92 12.14Q57.47 11.63 57.25 10.94Q57.04 10.25 57.04 9.42ZM58.42 8.71L62.03 8.71Q62.05 7.83 61.59 7.26Q61.14 6.69 60.34 6.69L60.34 6.69Q59.89 6.69 59.55 6.87Q59.21 7.04 58.97 7.32Q58.73 7.60 58.60 7.97Q58.46 8.33 58.42 8.71L58.42 8.71ZM69.61 5.77L70.95 5.77Q70.41 7.81 69.67 9.69Q68.94 11.56 68.25 13.05L68.25 13.05L67.07 13.05Q66.39 11.56 65.65 9.69Q64.92 7.81 64.37 5.77L64.37 5.77L65.77 5.77Q65.94 6.45 66.17 7.23Q66.40 8.01 66.66 8.77Q66.92 9.53 67.19 10.25Q67.45 10.96 67.69 11.52L67.69 11.52Q67.93 10.96 68.19 10.25Q68.46 9.53 68.72 8.77Q68.98 8.01 69.21 7.23Q69.44 6.45 69.61 5.77L69.61 5.77ZM71.69 9.42L71.69 9.42Q71.69 8.46 71.97 7.74Q72.25 7.01 72.72 6.54Q73.18 6.06 73.78 5.82Q74.38 5.59 75.01 5.59L75.01 5.59Q76.48 5.59 77.27 6.50Q78.05 7.42 78.05 9.30L78.05 9.30Q78.05 9.38 78.05 9.51Q78.05 9.65 78.04 9.76L78.04 9.76L73.05 9.76Q73.14 10.89 73.71 11.48Q74.28 12.07 75.50 12.07L75.50 12.07Q76.19 12.07 76.66 11.95Q77.13 11.83 77.36 11.72L77.36 11.72L77.55 12.81Q77.31 12.94 76.71 13.08Q76.12 13.22 75.36 13.22L75.36 13.22Q74.41 13.22 73.72 12.93Q73.02 12.64 72.58 12.14Q72.13 11.63 71.91 10.94Q71.69 10.25 71.69 9.42ZM73.08 8.71L76.69 8.71Q76.71 7.83 76.25 7.26Q75.80 6.69 75.00 6.69L75.00 6.69Q74.55 6.69 74.21 6.87Q73.86 7.04 73.63 7.32Q73.39 7.60 73.26 7.97Q73.12 8.33 73.08 8.71L73.08 8.71ZM82.29 12.10L82.11 13.19Q80.91 13.16 80.40 12.67Q79.90 12.18 79.90 11.14L79.90 11.14L79.90 2.41L81.20 2.18L81.20 10.93Q81.20 11.26 81.26 11.47Q81.31 11.68 81.44 11.80Q81.56 11.93 81.77 11.99Q81.98 12.05 82.29 12.10L82.29 12.10ZM90.17 9.41L90.17 9.41Q90.17 10.28 89.92 10.98Q89.67 11.68 89.22 12.18Q88.76 12.68 88.13 12.96Q87.50 13.23 86.76 13.23L86.76 13.23Q86.02 13.23 85.39 12.96Q84.76 12.68 84.30 12.18Q83.85 11.68 83.59 10.98Q83.34 10.28 83.34 9.41L83.34 9.41Q83.34 8.55 83.59 7.85Q83.85 7.14 84.30 6.64Q84.76 6.13 85.39 5.86Q86.02 5.59 86.76 5.59L86.76 5.59Q87.50 5.59 88.13 5.86Q88.76 6.13 89.22 6.64Q89.67 7.14 89.92 7.85Q90.17 8.55 90.17 9.41ZM88.82 9.41L88.82 9.41Q88.82 8.18 88.26 7.46Q87.71 6.73 86.76 6.73L86.76 6.73Q85.81 6.73 85.25 7.46Q84.70 8.18 84.70 9.41L84.70 9.41Q84.70 10.64 85.25 11.36Q85.81 12.08 86.76 12.08L86.76 12.08Q87.71 12.08 88.26 11.36Q88.82 10.64 88.82 9.41ZM97.06 9.42L97.06 9.42Q97.06 8.15 96.43 7.46Q95.80 6.78 94.75 6.78L94.75 6.78Q94.16 6.78 93.84 6.82Q93.51 6.86 93.31 6.92L93.31 6.92L93.31 11.51Q93.55 11.70 94.00 11.89Q94.44 12.07 94.98 12.07L94.98 12.07Q95.54 12.07 95.94 11.87Q96.33 11.66 96.59 11.30Q96.84 10.95 96.95 10.46Q97.06 9.98 97.06 9.42ZM98.42 9.42L98.42 9.42Q98.42 10.25 98.20 10.95Q97.99 11.65 97.57 12.15Q97.15 12.66 96.54 12.94Q95.93 13.22 95.14 13.22L95.14 13.22Q94.51 13.22 94.03 13.05Q93.55 12.88 93.31 12.73L93.31 12.73L93.31 15.64L92.01 15.64L92.01 5.99Q92.47 5.88 93.16 5.75Q93.86 5.61 94.77 5.61L94.77 5.61Q95.61 5.61 96.28 5.88Q96.95 6.15 97.43 6.64Q97.90 7.13 98.16 7.83Q98.42 8.54 98.42 9.42ZM100.25 13.05L100.25 5.98Q100.70 5.87 101.44 5.74Q102.17 5.61 103.14 5.61L103.14 5.61Q103.84 5.61 104.31 5.80Q104.79 5.99 105.11 6.36L105.11 6.36Q105.21 6.29 105.42 6.16Q105.63 6.03 105.94 5.92Q106.25 5.80 106.62 5.71Q107.00 5.61 107.44 5.61L107.44 5.61Q108.28 5.61 108.81 5.86Q109.34 6.10 109.64 6.55Q109.94 7 110.05 7.62Q110.15 8.23 110.15 8.96L110.15 8.96L110.15 13.05L108.85 13.05L108.85 9.24Q108.85 8.60 108.79 8.13Q108.72 7.67 108.55 7.36Q108.37 7.06 108.07 6.91Q107.77 6.76 107.30 6.76L107.30 6.76Q106.64 6.76 106.21 6.94Q105.78 7.11 105.63 7.25L105.63 7.25Q105.74 7.62 105.80 8.05Q105.85 8.48 105.85 8.96L105.85 8.96L105.85 13.05L104.55 13.05L104.55 9.24Q104.55 8.60 104.48 8.13Q104.41 7.67 104.24 7.36Q104.06 7.06 103.76 6.91Q103.46 6.76 103.00 6.76L103.00 6.76Q102.80 6.76 102.58 6.78Q102.35 6.79 102.15 6.81Q101.95 6.83 101.78 6.86Q101.61 6.89 101.56 6.90L101.56 6.90L101.56 13.05L100.25 13.05ZM111.90 9.42L111.90 9.42Q111.90 8.46 112.18 7.74Q112.46 7.01 112.92 6.54Q113.39 6.06 113.99 5.82Q114.59 5.59 115.22 5.59L115.22 5.59Q116.69 5.59 117.47 6.50Q118.26 7.42 118.26 9.30L118.26 9.30Q118.26 9.38 118.26 9.51Q118.26 9.65 118.24 9.76L118.24 9.76L113.26 9.76Q113.34 10.89 113.92 11.48Q114.49 12.07 115.71 12.07L115.71 12.07Q116.40 12.07 116.87 11.95Q117.33 11.83 117.57 11.72L117.57 11.72L117.75 12.81Q117.52 12.94 116.92 13.08Q116.33 13.22 115.57 13.22L115.57 13.22Q114.62 13.22 113.93 12.93Q113.23 12.64 112.78 12.14Q112.34 11.63 112.12 10.94Q111.90 10.25 111.90 9.42ZM113.29 8.71L116.90 8.71Q116.91 7.83 116.46 7.26Q116.00 6.69 115.21 6.69L115.21 6.69Q114.76 6.69 114.42 6.87Q114.07 7.04 113.83 7.32Q113.60 7.60 113.46 7.97Q113.33 8.33 113.29 8.71L113.29 8.71ZM120.13 13.05L120.13 5.98Q120.58 5.87 121.32 5.74Q122.07 5.61 123.03 5.61L123.03 5.61Q123.90 5.61 124.47 5.86Q125.05 6.10 125.39 6.54Q125.73 6.99 125.87 7.60Q126.01 8.22 126.01 8.96L126.01 8.96L126.01 13.05L124.71 13.05L124.71 9.24Q124.71 8.57 124.62 8.09Q124.53 7.62 124.32 7.32Q124.11 7.03 123.76 6.89Q123.41 6.76 122.89 6.76L122.89 6.76Q122.68 6.76 122.46 6.78Q122.23 6.79 122.03 6.81Q121.83 6.83 121.67 6.86Q121.51 6.89 121.44 6.90L121.44 6.90L121.44 13.05L120.13 13.05ZM129.39 3.51L129.39 5.77L132.15 5.77L132.15 6.86L129.39 6.86L129.39 10.22Q129.39 10.77 129.47 11.12Q129.56 11.48 129.72 11.68Q129.89 11.89 130.14 11.97Q130.40 12.05 130.73 12.05L130.73 12.05Q131.32 12.05 131.68 11.92Q132.03 11.79 132.17 11.73L132.17 11.73L132.43 12.81Q132.23 12.91 131.74 13.05Q131.25 13.20 130.62 13.20L130.62 13.20Q129.88 13.20 129.40 13.01Q128.91 12.82 128.62 12.45Q128.32 12.07 128.21 11.52Q128.09 10.96 128.09 10.23L128.09 10.23L128.09 3.74L129.39 3.51Z"></path></g><defs data-v-fde0c5aa=""><linearGradient data-v-fde0c5aa="" gradientTransform="rotate(25)" id="ddf36ec0-bedd-4a46-b7b3-dde73c24e776" x1="0%" y1="0%" x2="100%" y2="0%"><stop data-v-fde0c5aa="" offset="0%" stop-color="#5F2517" stop-opacity="1"></stop><stop data-v-fde0c5aa="" offset="100%" stop-color="#CAB08D" stop-opacity="1"></stop></linearGradient></defs><g data-v-fde0c5aa="" id="65092a93-d99a-47a2-8c7f-a2519b745fb3" stroke="none" fill="url(#ddf36ec0-bedd-4a46-b7b3-dde73c24e776)" transform="matrix(0.29544925689697266,0,0,0.29544925689697266,39.25722989027899,135.11582902293753)"><path d="M90.137 15.556C74.765-1.615 44.667.254 22.913 19.731 1.16 39.208-4.012 68.915 11.361 86.084c15.374 17.173 41.348 13.182 63.102-6.294 21.753-19.477 31.047-47.064 15.674-64.234zM22.852 71.124a2 2 0 11-.816-3.918 2 2 0 01.816 3.918zm.232-34.851a4 4 0 110-8 4 4 0 010 8zm43.671-25.117a2.002 2.002 0 012.369 1.549 2.003 2.003 0 01-1.553 2.367 1.996 1.996 0 01-2.363-1.551 1.996 1.996 0 011.547-2.365zM49.386 87.731a1.99 1.99 0 01-2.361-1.549 1.996 1.996 0 011.547-2.367 2 2 0 11.814 3.916zm-2.301-57.459a3.999 3.999 0 110-8 3.999 3.999 0 110 8zM60.584 49.19a2 2 0 114.001.001 2 2 0 01-4.001-.001zm6.501 23.082a3.999 3.999 0 110-8 3.999 3.999 0 110 8zm16.5-37.082a2 2 0 11-.001-3.999 2 2 0 01.001 3.999z"></path></g><!----></svg>